# xmcd
#
# Track frame offsets:
#	150
#	56331
#	92636
#	135242
#	171014
#
# Disc length: 3461 seconds
#
# Revision: 1
# Processed by: cddbd v1.5.2PL0 Copyright (c) Steve Scherf et al.
# Submitted via: audiograbber 1.83.01
#
DISCID=320d8305
DTITLE=Grateful Dead - 91-06-22 Soldier Field, Chicago IL
DYEAR=1900
DGENRE=
TTITLE0=Foolish Heart
TTITLE1=Looks Like Rain
TTITLE2=Crazy Fingers
TTITLE3=Playing In The Band
TTITLE4=Terrapin Station
EXTD=
EXTT0=
EXTT1=
EXTT2=
EXTT3=
EXTT4=
PLAYORDER=
